<?xml version="1.0" encoding="utf-8"?>
<!-- Generator: Adobe Illustrator 25.3.1, SVG Export Plug-In . SVG Version: 6.00 Build 0)  -->
<svg version="1.1" id="Capa_1" xmlns="http://www.w3.org/2000/svg" xmlns:xlink="http://www.w3.org/1999/xlink" x="0px" y="0px"
	 viewBox="0 0 283.69 241.32" enable-background="new 0 0 283.69 241.32" xml:space="preserve">
<polygon fill="none" stroke="#FFFFFF" stroke-width="10" stroke-miterlimit="10" points="141.81,5.69 141.81,5.69 4.88,5.69 
	4.88,79.55 4.88,153.4 73.56,153.4 73.56,227.26 142.23,153.4 279.16,153.4 279.16,5.69 "/>
<g>
	<polygon fill="#FFFFFF" points="42.57,130.55 60.8,130.55 60.8,88.93 103.55,88.93 103.55,74.09 60.8,74.09 60.8,43.92 
		107.58,43.92 107.58,28.58 42.57,28.58 	"/>
	<rect x="214.22" y="28.58" fill="#FFFFFF" width="18.23" height="101.98"/>
	<polygon fill="#FFFFFF" points="159.83,72.79 135.26,28.58 116.36,28.58 150.34,89.73 150.34,89.73 127.48,130.55 146.38,130.55 
		203.48,28.58 184.58,28.58 	"/>
</g>
</svg>
